<?xml version="1.0" encoding="utf-8"?>
<!-- Generator: Adobe Illustrator 19.1.0, SVG Export Plug-In . SVG Version: 6.00 Build 0)  -->
<svg version="1.1" id="Layer_1" xmlns="http://www.w3.org/2000/svg" xmlns:xlink="http://www.w3.org/1999/xlink" x="0px" y="0px"
	 viewBox="-218 196.4 521.3 169.6" style="enable-background:new -218 196.4 521.3 169.6;" xml:space="preserve">
<g>
	<g>
		<g>
			<path d="M-132.7,235h12.2v75c0,13.2-1.1,22.9-3.4,29c-3.2,8.6-8.6,15.3-16.5,20c-7.8,4.7-17.2,7-28.2,7c-8,0-15.3-1.2-21.7-3.4
				c-6.4-2.3-11.7-5.4-15.7-9.2c-4-3.9-7.7-9.5-11.1-16.9h13.2c3.6,6.2,8.1,10.8,13.8,13.8c5.6,3,12.6,4.5,20.9,4.5
				c8.2,0,15.1-1.5,20.8-4.6c5.6-3,9.7-6.9,12.1-11.5c2.4-4.6,3.6-12.1,3.6-22.4v-4.9c-4.5,5.8-10,10.2-16.6,13.3
				c-6.5,3.1-13.5,4.6-20.8,4.6c-8.6,0-16.6-2.1-24.2-6.5c-7.6-4.3-13.4-10.1-17.5-17.3c-4.2-7.2-6.2-15.2-6.2-24
				c0-8.7,2.1-16.8,6.4-24.3c4.3-7.5,10.3-13.5,17.8-17.9c7.6-4.4,15.6-6.6,24-6.6c7,0,13.5,1.4,19.5,4.3c6,2.8,11.9,7.6,17.5,14.3
				V235H-132.7z M-168.1,244.3c-6.8,0-13,1.7-18.8,5c-5.8,3.3-10.3,7.9-13.6,13.8s-4.9,12.2-4.9,19.1c0,10.4,3.4,18.9,10.2,25.7
				c6.8,6.8,15.6,10.2,26.4,10.2c11,0,19.7-3.4,26.4-10.1c6.7-6.7,10-15.5,10-26.5c0-7.1-1.5-13.5-4.6-19.1c-3.1-5.6-7.4-10-13-13.2
				S-161.7,244.3-168.1,244.3z"/>
			<path d="M-89.7,196.4c2.9,0,5.3,1,7.3,2.9c2,2,3,4.3,3,7.1c0,2.7-1,5-3,7s-4.5,2.9-7.3,2.9s-5.2-1-7.2-2.9c-2-2-3-4.3-3-7
				c0-2.8,1-5.1,3-7.1C-94.9,197.4-92.5,196.4-89.7,196.4z M-95.8,235h12.2v94.3h-12.2V235z"/>
			<path d="M20.3,235h12.2v75c0,13.2-1.2,22.9-3.5,29c-3.1,8.6-8.6,15.3-16.5,20c-7.8,4.7-17.2,7-28.2,7c-8,0-15.3-1.2-21.7-3.4
				c-6.4-2.3-11.6-5.4-15.6-9.2c-4-3.9-7.7-9.5-11.1-16.9h13.2c3.6,6.2,8.2,10.8,13.8,13.8s12.6,4.5,20.9,4.5
				c8.2,0,15.1-1.5,20.8-4.6c5.6-3,9.7-6.9,12.1-11.5c2.4-4.6,3.6-12.1,3.6-22.4v-4.9c-4.5,5.8-10,10.2-16.6,13.3
				c-6.5,3.1-13.4,4.6-20.8,4.6c-8.6,0-16.7-2.1-24.3-6.5c-7.5-4.3-13.4-10.1-17.5-17.3c-4.1-7.3-6.2-15.2-6.2-24
				c0-8.7,2.2-16.8,6.5-24.3c4.3-7.5,10.2-13.5,17.8-17.9c7.6-4.4,15.6-6.6,24-6.6c7,0,13.5,1.4,19.6,4.3c6,2.8,11.9,7.6,17.5,14.3
				V235z M-15.1,244.3c-6.8,0-13,1.7-18.8,5c-5.8,3.3-10.3,7.9-13.6,13.8s-4.9,12.2-4.9,19.1c0,10.4,3.4,18.9,10.2,25.7
				c6.8,6.8,15.6,10.2,26.5,10.2S4,314.7,10.7,308c6.7-6.7,10-15.5,10-26.5c0-7.1-1.5-13.5-4.6-19.1s-7.4-10-13-13.2
				C-2.6,246-8.6,244.3-15.1,244.3z"/>
			<path d="M134.4,235h12.2v75c0,13.2-1.2,22.9-3.5,29c-3.1,8.6-8.7,15.3-16.5,20s-17.2,7-28.2,7c-8.1,0-15.3-1.2-21.7-3.4
				c-6.4-2.3-11.6-5.4-15.6-9.2c-4-3.9-7.7-9.5-11.1-16.9h13.2c3.5,6.2,8.1,10.8,13.8,13.8c5.6,3,12.6,4.5,20.9,4.5
				c8.2,0,15.1-1.5,20.8-4.6c5.7-3,9.7-6.9,12.1-11.5s3.6-12.1,3.6-22.4v-4.9c-4.5,5.8-10,10.2-16.6,13.3
				c-6.5,3.1-13.4,4.6-20.8,4.6c-8.6,0-16.6-2.1-24.2-6.5c-7.5-4.3-13.4-10.1-17.5-17.3c-4.1-7.3-6.2-15.2-6.2-24
				c0-8.7,2.1-16.8,6.4-24.3c4.3-7.5,10.2-13.5,17.8-17.9c7.6-4.4,15.6-6.6,24-6.6c7,0,13.5,1.4,19.5,4.3c6,2.8,11.9,7.6,17.5,14.3
				V235H134.4z M99,244.3c-6.7,0-13,1.7-18.8,5c-5.8,3.3-10.3,7.9-13.6,13.8c-3.3,5.9-4.9,12.2-4.9,19.1c0,10.4,3.4,18.9,10.2,25.7
				c6.8,6.8,15.6,10.2,26.4,10.2c10.9,0,19.7-3.4,26.4-10.1c6.6-6.7,10-15.5,10-26.5c0-7.1-1.6-13.5-4.6-19.1
				c-3.1-5.6-7.4-10-13-13.2S105.4,244.3,99,244.3z"/>
			<path d="M167.4,198.7h12.3v130.6h-12.3V198.7z"/>
			<path d="M280.6,298.1l10.2,5.4c-3.3,6.5-7.2,11.8-11.6,15.8s-9.3,7.1-14.8,9.2s-11.7,3.2-18.6,3.2c-15.4,0-27.4-5-36-15.1
				s-13-21.4-13-34.1c0-11.9,3.7-22.6,11-31.9c9.3-11.8,21.7-17.8,37.3-17.8c16,0,28.9,6.1,38.5,18.3c6.8,8.6,10.3,19.4,10.4,32.3
				h-84.6c0.2,10.8,3.7,19.7,10.5,26.6c6.7,6.9,15.1,10.4,25,10.4c4.8,0,9.4-0.8,13.9-2.5s8.4-3.9,11.5-6.6
				C273.5,308.5,276.9,304.2,280.6,298.1z M280.9,272.7c-1.6-6.5-4-11.6-7.1-15.4c-3.1-3.9-7.2-7-12.3-9.3c-5.1-2.4-10.4-3.6-16-3.6
				c-9.3,0-17.2,3-23.8,8.9c-4.9,4.3-8.5,10.8-11,19.4H280.9z"/>
		</g>
	</g>
	<g>
		<path d="M303.3,324.1c0,0.9-0.2,1.7-0.7,2.5c-0.4,0.8-1,1.4-1.8,1.8s-1.6,0.7-2.4,0.7s-1.7-0.2-2.4-0.7c-0.8-0.4-1.4-1-1.8-1.8
			c-0.4-0.8-0.7-1.6-0.7-2.4c0-0.9,0.2-1.7,0.7-2.5c0.4-0.8,1-1.4,1.8-1.8s1.6-0.7,2.5-0.7s1.7,0.2,2.4,0.7c0.8,0.4,1.4,1,1.8,1.8
			C303.1,322.5,303.3,323.3,303.3,324.1z M302.7,324.1c0-0.7-0.2-1.5-0.6-2.1c-0.4-0.7-0.9-1.2-1.5-1.6s-1.3-0.6-2.1-0.6
			s-1.5,0.2-2.1,0.6c-0.7,0.4-1.2,0.9-1.6,1.6c-0.4,0.7-0.6,1.4-0.6,2.1c0,0.8,0.2,1.5,0.6,2.1c0.4,0.7,0.9,1.2,1.6,1.5
			c0.7,0.4,1.4,0.6,2.1,0.6c0.7,0,1.4-0.2,2.1-0.6c0.7-0.4,1.2-0.9,1.5-1.5C302.5,325.6,302.7,324.9,302.7,324.1z M296.4,321.3h2.4
			c0.6,0,0.9,0.1,1.2,0.2c0.2,0.1,0.4,0.3,0.6,0.5c0.2,0.2,0.2,0.5,0.2,0.9c0,0.3-0.1,0.5-0.2,0.7c-0.1,0.2-0.3,0.3-0.5,0.5
			c0.3,0.1,0.4,0.3,0.5,0.4c0.1,0.2,0.1,0.4,0.1,0.8v0.6c0,0.3,0.1,0.6,0.2,0.8l0.1,0.2h-1c-0.1-0.2-0.1-0.5-0.1-0.8v-0.7
			c0-0.3-0.1-0.4-0.1-0.5c-0.1-0.1-0.2-0.2-0.3-0.2s-0.4-0.1-0.7-0.1h-1.4v2.4h-0.9L296.4,321.3L296.4,321.3z M297.3,322.1v1.7h1.4
			c0.4,0,0.7,0,0.9-0.1s0.3-0.4,0.3-0.7c0-0.3-0.1-0.5-0.2-0.6c-0.2-0.1-0.5-0.2-0.9-0.2h-1.5V322.1z"/>
	</g>
</g>
</svg>
